<svg width="24" height="24" viewBox="0 0 24 24" fill="none" xmlns="http://www.w3.org/2000/svg">
<path fill-rule="evenodd" clip-rule="evenodd" d="M17.6552 4.32136C19.1672 5.82236 20.0002 7.81736 20.0002 9.94036C20.0002 11.0088 19.7662 12.0307 19.387 13.0028C18.5673 15.1046 12.8258 21.5911 12.7288 21.6871C12.6318 21.7831 12.3951 22.0005 11.9999 22.0005C11.6048 22.0005 11.3742 21.7831 11.2752 21.6871C11.1762 21.5911 5.50082 15.1046 4.61377 13.0036C4.20986 12.0469 4.00024 11.0091 4.00024 9.94036C4.00024 7.81736 4.83324 5.82236 6.34524 4.32136C9.46324 1.22736 14.5372 1.22636 17.6552 4.32136ZM7.75429 5.74073C6.61981 6.86695 6.00024 8.35133 6.00024 9.94036C6.00024 10.7397 6.1555 11.5132 6.45628 12.2257C6.73983 12.8973 8.01754 14.6538 9.79169 16.8354C10.4977 17.7035 11.4006 18.7753 12.0052 19.4848C12.6179 18.7729 13.5242 17.7052 14.2383 16.8314C16.0067 14.6679 17.2738 12.917 17.5237 12.2761C17.8402 11.4647 18.0002 10.6932 18.0002 9.94036C18.0002 8.35133 17.3807 6.86695 16.2463 5.7408C13.9085 3.42023 10.0926 3.42046 7.75429 5.74073ZM11.9999 7.00046C13.6568 7.00046 14.9999 8.34361 14.9999 10.0005C14.9999 11.6573 13.6568 13.0005 11.9999 13.0005C10.3431 13.0005 8.99994 11.6573 8.99994 10.0005C8.99994 8.34361 10.3431 7.00046 11.9999 7.00046ZM11.9999 9.00046C11.4477 9.00046 10.9999 9.44818 10.9999 10.0005C10.9999 10.5527 11.4477 11.0005 11.9999 11.0005C12.5522 11.0005 12.9999 10.5527 12.9999 10.0005C12.9999 9.44818 12.5522 9.00046 11.9999 9.00046Z" fill="#202E44"/>
</svg>
