<svg width="32" height="32" viewBox="0 0 32 32" fill="none" xmlns="http://www.w3.org/2000/svg">
<path fill-rule="evenodd" clip-rule="evenodd" d="M5.6001 20C5.6001 13.6 12.7793 7.73811 15.3631 5.80835C15.7366 5.53056 16.2627 5.53056 16.6362 5.80835C18.9017 7.49025 26.4001 13.6 26.4001 20C26.4001 25.6 22.4001 30.4 16.0001 30.4C9.6001 30.4 5.6001 25.6 5.6001 20Z" fill="#AACBFD"/>
<path fill-rule="evenodd" clip-rule="evenodd" d="M13.1717 3.92102C13.0588 3.69743 13 3.45047 13 3.20001C13 2.31635 13.7163 1.60001 14.6 1.60001H17.4444C17.6865 1.60001 17.9255 1.65496 18.1433 1.76073C18.9382 2.14674 19.2697 3.10404 18.8836 3.89893L18.0576 5.60001H14.0192L13.1717 3.92102Z" fill="#AACBFD"/>
<path d="M16.0003 27.2C19.9767 27.2 23.2003 23.9764 23.2003 20C23.2003 16.0236 19.9767 12.8 16.0003 12.8C12.0238 12.8 8.80029 16.0236 8.80029 20C8.80029 23.9764 12.0238 27.2 16.0003 27.2Z" fill="#EBF3FC"/>
<path fill-rule="evenodd" clip-rule="evenodd" d="M13.2 5.60001H18.8C19.4627 5.60001 20 6.13726 20 6.80001C20 7.46275 19.4627 8.00001 18.8 8.00001H13.2C12.5373 8.00001 12 7.46275 12 6.80001C12 6.13726 12.5373 5.60001 13.2 5.60001Z" fill="#6AA3FE"/>
<path fill-rule="evenodd" clip-rule="evenodd" d="M18.271 17.2395C18.4022 16.8911 18.7956 16.7131 19.1506 16.8419C19.507 16.9707 19.689 17.3592 19.5572 17.7088L17.6565 22.7606C17.5256 23.1087 17.1316 23.2868 16.7772 23.1582C16.4207 23.0289 16.2388 22.641 16.37 22.2911L18.271 17.2395ZM14.5153 17.12C15.0365 17.125 15.5563 17.1812 16.0665 17.2876C16.092 17.2929 16.4991 17.4269 16.4407 17.9237C16.3824 18.4205 15.937 18.4473 15.908 18.4426C15.5383 18.3816 15.1647 18.3463 14.7899 18.3365C14.389 18.3365 13.9344 18.3554 13.9344 18.7367C13.9344 19.1179 14.1838 19.1463 14.7678 19.3038C15.9643 19.6189 16.3274 20.1104 16.3274 21.1061C16.3274 22.4102 15.5381 22.88 14.1649 22.88C13.6317 22.8775 13.1001 22.8229 12.5781 22.7166C12.5186 22.7046 12.0872 22.5944 12.1664 22.0441C12.2457 21.4938 12.674 21.5158 12.7368 21.5246C13.183 21.5871 13.6323 21.6251 14.0828 21.6386C14.5753 21.6386 14.7805 21.5028 14.7805 21.1751C14.7805 20.86 14.5784 20.7532 14.0638 20.5925C13.0441 20.2774 12.4317 19.9056 12.4317 18.8218C12.4317 17.5331 13.1736 17.12 14.5153 17.12Z" fill="#FF9333"/>
</svg>
