<svg width="32" height="32" viewBox="0 0 32 32" fill="none" xmlns="http://www.w3.org/2000/svg">
<path fill-rule="evenodd" clip-rule="evenodd" d="M8.8002 1.59999H23.2002C24.0839 1.59999 24.8002 2.31634 24.8002 3.19999V28.8C24.8002 29.6836 24.0839 30.4 23.2002 30.4H8.8002C7.91654 30.4 7.2002 29.6836 7.2002 28.8V3.19999C7.2002 2.31634 7.91654 1.59999 8.8002 1.59999Z" fill="#AACBFD"/>
<path fill-rule="evenodd" clip-rule="evenodd" d="M9.60029 3.19998H22.4003C22.8421 3.19998 23.2003 3.55815 23.2003 3.99998V24.8C23.2003 25.2418 22.8421 25.6 22.4003 25.6H9.60029C9.15847 25.6 8.80029 25.2418 8.80029 24.8V3.99998C8.80029 3.55815 9.15847 3.19998 9.60029 3.19998Z" fill="#EBF3FC"/>
<path fill-rule="evenodd" clip-rule="evenodd" d="M14.4001 27.2H17.6001C18.0419 27.2 18.4001 27.5582 18.4001 28C18.4001 28.4418 18.0419 28.8 17.6001 28.8H14.4001C13.9583 28.8 13.6001 28.4418 13.6001 28C13.6001 27.5582 13.9583 27.2 14.4001 27.2Z" fill="#6AA3FE"/>
<path d="M12.8 24C13.2418 24 13.6 23.6418 13.6 23.2C13.6 22.7582 13.2418 22.4 12.8 22.4C12.3582 22.4 12 22.7582 12 23.2C12 23.6418 12.3582 24 12.8 24Z" fill="#FF9333"/>
<path d="M16.0002 24C16.442 24 16.8002 23.6418 16.8002 23.2C16.8002 22.7582 16.442 22.4 16.0002 22.4C15.5584 22.4 15.2002 22.7582 15.2002 23.2C15.2002 23.6418 15.5584 24 16.0002 24Z" fill="#FF9333"/>
<path d="M19.2004 24C19.6422 24 20.0004 23.6418 20.0004 23.2C20.0004 22.7582 19.6422 22.4 19.2004 22.4C18.7586 22.4 18.4004 22.7582 18.4004 23.2C18.4004 23.6418 18.7586 24 19.2004 24Z" fill="#FF9333"/>
</svg>
