<svg width="32" height="32" viewBox="0 0 32 32" fill="none" xmlns="http://www.w3.org/2000/svg">
<path fill-rule="evenodd" clip-rule="evenodd" d="M2.40039 12H29.6004V28.8C29.6004 29.6837 28.884 30.4 28.0004 30.4H4.00039C3.11673 30.4 2.40039 29.6837 2.40039 28.8V12Z" fill="#EBF3FC"/>
<path fill-rule="evenodd" clip-rule="evenodd" d="M3.2001 8H28.8001C29.6838 8 30.4001 8.71634 30.4001 9.6V13.6H1.6001V9.6C1.6001 8.71634 2.31644 8 3.2001 8Z" fill="#AACBFD"/>
<path fill-rule="evenodd" clip-rule="evenodd" d="M11.578 4.80319C11.8795 4.8363 12.2158 4.9845 12.393 5.2024L13.5998 6.39403H11.578C11.1751 6.43167 10.7797 6.28939 10.5626 6.02863C10.3455 5.76787 10.3455 5.37753 10.5626 5.14112C10.7618 4.89176 11.1002 4.77912 11.578 4.80319ZM11.5595 3.20452C10.5942 3.14993 9.67578 3.59419 9.17522 4.35787C8.67467 5.12154 8.67467 6.07848 9.17522 6.84216C9.67578 7.60583 10.5942 8.05009 11.5595 7.9955H16.7998L13.6634 4.20227C13.1915 3.58464 12.4271 3.21353 11.6082 3.20452H11.5595Z" fill="#FF9333"/>
<path fill-rule="evenodd" clip-rule="evenodd" d="M20.5333 7.99993H13.6001L17.7883 2.89767C18.7544 1.68337 20.5025 1.26215 21.9818 1.88722C23.461 2.5123 24.2687 4.01348 23.9192 5.48835C23.5697 6.96322 22.1582 8.01021 20.5333 7.99993ZM16.8001 6.3952H20.4281C21.1139 6.44169 21.7716 6.14822 22.1307 5.63548C22.4899 5.12274 22.4899 4.47728 22.1307 3.96453C21.7716 3.45179 21.1139 3.15832 20.4281 3.20481C19.8579 3.21674 19.3285 3.46592 19.0032 3.87547L16.8001 6.3952Z" fill="#FF9333"/>
<path fill-rule="evenodd" clip-rule="evenodd" d="M13.6001 8H18.4001V30.4H13.6001V8Z" fill="#FF9333"/>
</svg>
