<svg width="24" height="24" viewBox="0 0 24 24" fill="none" xmlns="http://www.w3.org/2000/svg">
<path fill-rule="evenodd" clip-rule="evenodd" d="M21 4.00037C21.5523 4.00037 22 4.44808 22 5.00037V19.0004C22 19.5527 21.5523 20.0004 21 20.0004H3C2.44772 20.0004 2 19.5527 2 19.0004V5.00037C2 4.44808 2.44772 4.00037 3 4.00037H21ZM20 8.23437L12.5253 12.8488C12.2033 13.0475 11.7967 13.0475 11.4747 12.8488L4 8.23537V18.0004H20V8.23437ZM19.997 6.00037C19.9967 6.00367 15.6162 6.00398 6.85845 6.0013L4.001 6.00037L12 11.0004L19.997 6.00037Z" fill="#202E44"/>
</svg>
