<svg xmlns="http://www.w3.org/2000/svg" width="52" height="57" viewBox="0 0 52 57">
  <g fill="none" fill-rule="evenodd" transform="translate(-6 -3)">
    <path fill="#D0E5FF" d="M27.2,16 C33.6,16 36.2666667,16 35.2,16 C45.3456754,16 54.2879369,26.4982852 54.2879369,33.6 C54.2879369,40.7017148 57.6,39.2 57.6,46.4 C57.6,53.6 48.5456754,59.2 38.4,59.2 L25.6,59.2 C15.4543246,59.2 6.4,50.1433371 6.4,40 L6.4,33.6 C6.4,23.4566629 17.6,16 27.2,16 Z"/>
    <path fill="#8FBAFC" d="M28.1355884,16 L31.3624923,16 C32.2836719,16.673259 33.123236,17.5833224 33.8811844,18.73019 C35.0181071,20.4504915 34.8333832,21.8448316 34.1071532,21.9814403 C32.9078633,22.2070346 32.716397,21.1160331 31.335614,19.050731 C30.4150919,17.673863 29.3484168,16.6569526 28.1355884,16 Z"/>
    <path fill="#3262C4" d="M28.7370639 36.8903127C28.5289159 36.2950262 28.1937554 35.7419279 27.7543754 35.2651644 27.0978872 34.5528208 26.2298115 34.0325145 25.2462169 33.7754875 22.616937 33.08842 19.9146447 34.4765058 19.2401593 36.9313857 19.0729085 37.5401175 19.4433297 38.1658182 20.0675183 38.3289274 20.647122 38.4803859 21.2417286 38.1797197 21.4576256 37.6486099L21.5005461 37.5220563C21.8295657 36.3245456 23.2221037 35.6092409 24.640548 35.9799002 25.1857874 36.1223788 25.6598515 36.4065229 26.0139084 36.7907038 26.1979319 36.9903844 26.3453912 37.2129281 26.4509476 37.4482042L26.5221747 37.6268904C26.7307398 38.2233695 27.395635 38.5420228 28.0072597 38.3386224 28.6188845 38.1352221 28.945629 37.4867917 28.7370639 36.8903127zM51.1370639 36.8903127C50.9289159 36.2950262 50.5937554 35.7419279 50.1543754 35.2651644 49.4978872 34.5528208 48.6298115 34.0325145 47.6462169 33.7754875 45.016937 33.08842 42.3146447 34.4765058 41.6401593 36.9313857 41.4729085 37.5401175 41.8433297 38.1658182 42.4675183 38.3289274 43.047122 38.4803859 43.6417286 38.1797197 43.8576256 37.6486099L43.9005461 37.5220563C44.2295657 36.3245456 45.6221037 35.6092409 47.040548 35.9799002 47.5857874 36.1223788 48.0598515 36.4065229 48.4139084 36.7907038 48.5979319 36.9903844 48.7453912 37.2129281 48.8509476 37.4482042L48.9221747 37.6268904C49.1307398 38.2233695 49.795635 38.5420228 50.4072597 38.3386224 51.0188845 38.1352221 51.345629 37.4867917 51.1370639 36.8903127z"/>
    <path fill="#8FBAFC" d="M32.8,38.4 L40.8,38.4 C43.8927946,38.4 46.4,40.9072054 46.4,44 C46.4,47.0927946 43.8927946,49.6 40.8,49.6 L32.8,49.6 C29.7072054,49.6 27.2,47.0927946 27.2,44 C27.2,40.9072054 29.7072054,38.4 32.8,38.4 Z"/>
    <path fill="#5B90E9" d="M32 41.6C32.8836556 41.6 33.6 42.3163444 33.6 43.2L33.6 44.8C33.6 45.6836556 32.8836556 46.4 32 46.4 31.1163444 46.4 30.4 45.6836556 30.4 44.8L30.4 43.2C30.4 42.3163444 31.1163444 41.6 32 41.6zM41.6 41.6C42.4836556 41.6 43.2 42.3163444 43.2 43.2L43.2 44.8C43.2 45.6836556 42.4836556 46.4 41.6 46.4 40.7163444 46.4 40 45.6836556 40 44.8L40 43.2C40 42.3163444 40.7163444 41.6 41.6 41.6z"/>
    <path fill="#3262C4" d="M27.2,52.8 L36.8,52.8 C36.8,54.5673112 34.9579715,56 32.6857143,56 L31.3142857,56 C29.1231805,56 27.3321222,54.6678187 27.2069843,52.9880243 L27.2,52.8 Z"/>
    <path fill="#D0E5FF" d="M12.3104533 17.8039519L22.4 20.5104909 9.6 33.6405379 8 20.5104909C8.16000484 18.7504377 9.71651943 17.4533422 11.4765726 17.613347 11.7618103 17.6392777 12.0422756 17.7033853 12.3104533 17.8039519zM48.4895467 17.8039519L38.4 20.8 51.2 33.930047 52.8 20.5104909C52.6399952 18.7504377 51.0834806 17.4533422 49.3234274 17.613347 49.0381897 17.6392777 48.7577244 17.7033853 48.4895467 17.8039519z"/>
    <path fill="#FF9333" d="M31.0533573,14.4 C33.0415824,14.4 34.2082183,11.8927946 34.2082183,8.8 C34.2082183,5.7072054 32.6499372,3.2 31.0533573,3.2 C29.4567775,3.2 29.4097312,3.14084306 29.2,3.2 C27.5203009,3.6737772 27.2,6.05051287 27.2,8.8 C27.2,11.7383413 27.4499195,14.1666406 29.3002042,14.4 C29.3974641,14.4122665 29.0651322,14.4 31.0533573,14.4 Z"/>
    <ellipse cx="29.2" cy="8.8" fill="#FFB36F" rx="3.6" ry="5.6"/>
    <path fill="#8FBAFC" d="M12.2,20.8 L14.4,20.8 L14.4,20.8 L11.2,24 L11.2,21.8 C11.2,21.2477153 11.6477153,20.8 12.2,20.8 Z"/>
    <path fill="#8FBAFC" d="M47.4,20.8 L49.6,20.8 L49.6,20.8 L46.4,24 L46.4,21.8 C46.4,21.2477153 46.8477153,20.8 47.4,20.8 Z" transform="matrix(-1 0 0 1 96 0)"/>
  </g>
</svg>
