<svg width="40" height="40" viewBox="0 0 40 40" fill="none" xmlns="http://www.w3.org/2000/svg">
<path fill-rule="evenodd" clip-rule="evenodd" d="M3.07708 17.4452L26.0337 5.23896C27.009 4.72039 28.22 5.09063 28.7386 6.06591L35.3112 18.4272C35.8297 19.4025 35.4595 20.6134 34.4842 21.132L11.5276 33.3383C10.5523 33.8568 9.34129 33.4866 8.82273 32.5113L2.25013 20.1501C1.73156 19.1748 2.1018 17.9638 3.07708 17.4452Z" fill="#3262C4"/>
<path fill-rule="evenodd" clip-rule="evenodd" d="M5.53364 15.847L30.6477 9.11766C31.7146 8.83177 32.8113 9.46494 33.0972 10.5319L36.7207 24.0548C37.0066 25.1218 36.3734 26.2184 35.3065 26.5043L10.1924 33.2336C9.12545 33.5195 8.02878 32.8863 7.74289 31.8194L4.11943 18.2964C3.83354 17.2295 4.46671 16.1328 5.53364 15.847Z" fill="#5B90E9"/>
<path fill-rule="evenodd" clip-rule="evenodd" d="M10 15.99H36C37.1046 15.99 38 16.8854 38 17.99V31.99C38 33.0946 37.1046 33.99 36 33.99H10C8.89543 33.99 8 33.0946 8 31.99V17.99C8 16.8854 8.89543 15.99 10 15.99Z" fill="#D0E5FF"/>
<path fill-rule="evenodd" clip-rule="evenodd" d="M12.9997 30.9983C12.9988 29.8945 12.1037 29 10.9997 29V31H12.9997L12.9997 30.9983H32.9997C33.0006 29.8945 33.8957 29 34.9997 29V31H32.9997V30.9983H34.9997V18.9983H10.9997V30.9983H12.9997ZM10 15.99H36C37.1046 15.99 38 16.8854 38 17.99V31.99C38 33.0946 37.1046 33.99 36 33.99H10C8.89543 33.99 8 33.0946 8 31.99V17.99C8 16.8854 8.89543 15.99 10 15.99ZM35 19V21C33.8954 21 33 20.1046 33 19H35ZM10.9997 19H12.9997C12.9997 20.1046 12.1043 21 10.9997 21V19ZM31.0003 23.9983H32.0003C32.5526 23.9983 33.0003 24.446 33.0003 24.9983C33.0003 25.5506 32.5526 25.9983 32.0003 25.9983H31.0003C30.448 25.9983 30.0003 25.5506 30.0003 24.9983C30.0003 24.446 30.448 23.9983 31.0003 23.9983ZM14 23.9983H15C15.5523 23.9983 16 24.446 16 24.9983C16 25.5506 15.5523 25.9983 15 25.9983H14C13.4477 25.9983 13 25.5506 13 24.9983C13 24.446 13.4477 23.9983 14 23.9983Z" fill="#8FBAFC"/>
<path fill-rule="evenodd" clip-rule="evenodd" d="M23 20C25.7614 20 28 22.2386 28 25C28 27.7614 25.7614 30 23 30C20.2386 30 18 27.7614 18 25C18 22.2386 20.2386 20 23 20ZM26.143 22.0211C25.8974 21.9474 25.6395 22.0716 25.5404 22.3014L25.5204 22.3563L24.0204 27.3563C23.9411 27.6208 24.0912 27.8996 24.3557 27.9789C24.6013 28.0526 24.8591 27.9284 24.9583 27.6986L24.9782 27.6437L26.4782 22.6437C26.5576 22.3792 26.4075 22.1004 26.143 22.0211ZM21.5006 22C20.7602 22.0018 20.0451 22.3258 19.6855 22.9831C19.3914 23.5218 19.4506 24.2081 19.8454 24.6666C20.0408 24.8932 20.2659 25.0426 20.5794 25.1844L20.736 25.2518L21.0642 25.3819L21.18 25.4235L21.6564 25.5854L21.8486 25.6552C22.0503 25.7322 22.1807 25.7971 22.3181 25.8864C22.6651 26.1111 22.4542 26.8662 21.7905 26.9816C21.3473 27.0312 20.9296 26.9692 20.5747 26.8343C20.4879 26.8014 20.4185 26.7697 20.3678 26.7437L20.3333 26.7253L20.2321 26.6638C20.0121 26.5486 19.7354 26.6125 19.59 26.8217C19.4324 27.0483 19.4885 27.3596 19.7153 27.5171C19.8172 27.5878 19.9868 27.6801 20.2193 27.7684C20.717 27.9574 21.2935 28.0431 21.9328 27.9703C23.4789 27.7023 24.0124 25.7929 22.8627 25.0483C22.5827 24.8663 22.3489 24.7652 21.8916 24.6094L21.5691 24.5007L21.4212 24.4484L21.2954 24.4L21.1904 24.3578L20.9998 24.2776C20.8054 24.19 20.6873 24.1121 20.6032 24.0146C20.4852 23.8776 20.4649 23.642 20.5632 23.462C20.7917 23.0443 21.4337 22.8874 21.9957 23.0747L22.1835 23.139C22.2387 23.1586 22.2883 23.1771 22.3376 23.1967L22.412 23.2271L22.5756 23.2994L22.7852 23.398C23.0344 23.5169 23.3329 23.4114 23.4518 23.1624C23.5708 22.9133 23.4652 22.6151 23.216 22.4962L22.9563 22.3747C22.9062 22.352 22.86 22.3316 22.8154 22.3126L22.6845 22.2592L22.5264 22.2004L22.3127 22.127C22.0491 22.0391 21.7735 21.9994 21.5006 22Z" fill="#FF9333"/>
</svg>
