<svg width="40" height="40" viewBox="0 0 40 40" fill="none" xmlns="http://www.w3.org/2000/svg">
<path fill-rule="evenodd" clip-rule="evenodd" d="M18.0308 35.1875L5.23448 22.4228C2.15646 19.3543 1.15745 14.7533 2.74866 10.9737C4.26427 7.3736 7.23069 4.90421 10.8865 4.19842C14.1535 3.57441 17.498 4.45798 20 6.58425C22.5038 4.4562 25.8518 3.56907 29.1134 4.19842C32.7675 4.90421 35.7339 7.3736 37.2513 10.9737C38.8425 14.7533 37.8435 19.3543 34.7673 22.4228L21.9692 35.1875C21.4454 35.7102 20.7452 36 20 36C19.2548 36 18.5546 35.7102 18.0308 35.1875Z" fill="#D0E5FF"/>
<path fill-rule="evenodd" clip-rule="evenodd" d="M17 10C17.4661 10 17.8076 10.1918 17.9961 10.7518C17.9972 10.7551 22.099 25.417 22.099 25.417L25.0067 16.8834C25.1958 16.4071 25.3554 16 26 16C26.6446 16 27 16.8466 27 16.8466L28.788 22H37C37.5523 22 38 22.4477 38 23C38 23.5523 37.5523 24 37 24H28C27.3891 23.9933 27 23 27 23L26 20.1536L23 29.19C22.8401 29.5938 22.5128 30 22 30C21.4872 30 21.1836 29.611 21.0067 29.1166L16.84 14.425L13.999 22.978C13.999 22.978 13.614 23.9355 13.1166 23.9933L13 24L9 23.9933C8.44772 23.9933 8 23.5456 8 22.9933C8 22.441 8.44772 22 9 22H12.218L16 10.7608C16 10.7608 16.2962 10 17 10Z" fill="#FF9333"/>
<path fill-rule="evenodd" clip-rule="evenodd" d="M5.99971 22C6.55199 22 6.99971 22.4477 6.99971 23C6.99971 23.5523 6.55199 24 5.99971 24C5.44742 24 4.99971 23.5523 4.99971 23C4.99971 22.4477 5.44742 22 5.99971 22ZM3 22C3.55228 22 4 22.4477 4 23C4 23.5523 3.55228 24 3 24C2.44772 24 2 23.5523 2 23C2 22.4477 2.44772 22 3 22Z" fill="#8FBAFC"/>
</svg>
