<svg width="40" height="40" viewBox="0 0 40 40" fill="none" xmlns="http://www.w3.org/2000/svg">
<path fill-rule="evenodd" clip-rule="evenodd" d="M4 9H36C37.1046 9 38 9.89543 38 11V29C38 30.1046 37.1046 31 36 31H4C2.89543 31 2 30.1046 2 29V11C2 9.89543 2.89543 9 4 9Z" fill="#D0E5FF"/>
<path fill-rule="evenodd" clip-rule="evenodd" d="M18 26C18.5523 26 19 26.4477 19 27C19 27.5523 18.5523 28 18 28H6C5.44772 28 5 27.5523 5 27C5 26.4477 5.44772 26 6 26H18ZM34 22C34.5523 22 35 22.4477 35 23C35 23.5523 34.5523 24 34 24H6C5.44772 24 5 23.5523 5 23C5 22.4477 5.44772 22 6 22H34Z" fill="#8FBAFC"/>
<path fill-rule="evenodd" clip-rule="evenodd" d="M30 26H34C34.5523 26 35 26.4477 35 27C35 27.5523 34.5523 28 34 28H30C29.4477 28 29 27.5523 29 27C29 26.4477 29.4477 26 30 26Z" fill="#5B90E9"/>
<path fill-rule="evenodd" clip-rule="evenodd" d="M6 12H11C11.5523 12 12 12.4477 12 13V15C12 15.5523 11.5523 16 11 16H6C5.44772 16 5 15.5523 5 15V13C5 12.4477 5.44772 12 6 12Z" fill="#5B90E9"/>
<circle cx="32" cy="32" r="8" fill="#FF9333"/>
<path fill-rule="evenodd" clip-rule="evenodd" d="M32.6843 36.8286L32.1337 36.9817C32.0462 37.0061 31.9538 37.0061 31.8663 36.9818L31.3152 36.8286C29.3525 36.2823 28 34.6461 28 32.5474C28 30.7625 28 29.6648 28 29.2543C28 29.0038 28.2029 28.7534 28.5 28.7534C29.364 28.7534 30.6508 28.2713 31.628 27.1674C31.7201 27.0634 31.8441 27.0076 32 27C32.1579 27.0083 32.2821 27.0641 32.3725 27.1674C33.3573 28.2926 34.6283 28.7534 35.5 28.7534C35.8162 28.7534 36 29.0253 36 29.2543C36 29.6148 36 30.7125 36 32.5474C36 34.6461 34.6469 36.2823 32.6843 36.8286ZM34.9994 32.5473V29.7224C33.976 29.5906 32.884 29.0659 31.9977 28.2217C31.1124 29.0552 30.013 29.5861 28.9994 29.7211V32.5473C28.9994 34.1488 30.0056 35.4243 31.5819 35.8631L31.9993 35.9791L32.4161 35.8632C33.9929 35.4243 34.9994 34.1486 34.9994 32.5473Z" fill="white"/>
</svg>
