<svg width="40" height="40" viewBox="0 0 40 40" fill="none" xmlns="http://www.w3.org/2000/svg">
<path fill-rule="evenodd" clip-rule="evenodd" d="M4 9H36C37.1046 9 38 9.89543 38 11V29C38 30.1046 37.1046 31 36 31H4C2.89543 31 2 30.1046 2 29V11C2 9.89543 2.89543 9 4 9Z" fill="#D0E5FF"/>
<path fill-rule="evenodd" clip-rule="evenodd" d="M6 22H34C34.5523 22 35 22.4477 35 23C35 23.5523 34.5523 24 34 24H6C5.44772 24 5 23.5523 5 23C5 22.4477 5.44772 22 6 22ZM6 26H18C18.5523 26 19 26.4477 19 27C19 27.5523 18.5523 28 18 28H6C5.44772 28 5 27.5523 5 27C5 26.4477 5.44772 26 6 26Z" fill="#8FBAFC"/>
<path fill-rule="evenodd" clip-rule="evenodd" d="M30 26H34C34.5523 26 35 26.4477 35 27C35 27.5523 34.5523 28 34 28H30C29.4477 28 29 27.5523 29 27C29 26.4477 29.4477 26 30 26Z" fill="#5B90E9"/>
<path fill-rule="evenodd" clip-rule="evenodd" d="M6 12H11C11.5523 12 12 12.4477 12 13V15C12 15.5523 11.5523 16 11 16H6C5.44772 16 5 15.5523 5 15V13C5 12.4477 5.44772 12 6 12Z" fill="#FF9333"/>
</svg>
