<svg width="24" height="24" viewBox="0 0 24 24" fill="none" xmlns="http://www.w3.org/2000/svg">
<path fill-rule="evenodd" clip-rule="evenodd" d="M11 13.0001C12.5 14.5001 13.9968 15.9338 15.5 14.5001C15.8121 14.2025 16.1039 13.9338 16.3755 13.694C16.7945 13.2751 17.4737 13.2751 17.8927 13.694L21.6858 17.4873C22.1047 17.9063 22.1047 18.5856 21.6858 19.0046L19.4099 21.2805C17.1341 23.5564 10.5365 19.9932 7.27214 16.7286C4.00008 13.4564 0.444628 6.86624 2.72046 4.5903L4.9963 2.31436C5.41527 1.89537 6.09456 1.89537 6.51353 2.31436L10.3066 6.10759C10.7256 6.52658 10.7256 7.20589 10.3066 7.62488C10.0671 7.89585 9.79824 8.1876 9.5 8.50012C8.06797 10.0007 9.5 11.5001 11 13.0001ZM16.3755 16.3651C15.0252 17.2562 13.8047 17.2562 12.5595 16.7286C11.6842 16.3578 10.8068 15.6332 9.61546 14.4418C8.42746 13.2538 7.74644 12.4211 7.33388 11.5852C6.82997 10.5643 6.66247 9.39125 7.41438 7.96024C7.59059 7.62488 8.08525 7.09412 8.26588 6.8963L5.75398 4.38705L4.13979 6.00026C3.50612 6.68845 4.89306 11.505 8.66647 15.2938C12.4399 19.0826 17.318 20.5174 18.0021 19.8603L19.6129 18.2457L17.1024 15.7393C16.9177 15.9069 16.6208 16.2032 16.3755 16.3651Z" fill="#202E44"/>
</svg>
